<svg version="1.0" xmlns="http://www.w3.org/2000/svg" width="933.333" height="933.333" viewBox="0 0 700 700"><path d="M343.5 88.5c-2.7.6-9.5 3.7-15 6.7-14.8 8.2-36.1 20.1-43.3 24.2-3.5 2-6.6 3.6-6.8 3.6-.2 0-2.5 1.3-5.2 2.9-2.7 1.6-7.4 4.2-10.3 5.9-3 1.6-15.7 8.7-28.4 15.7-12.6 7-25 13.9-27.5 15.2-7.8 4.3-23 12.8-36.2 20.2-7 3.9-14.4 8-16.5 9.1-2.1 1.2-5.6 3.1-7.8 4.4-2.2 1.2-7.6 4.2-12 6.5-4.4 2.4-8.4 4.7-9 5.1-.5.4-3.5 2.1-6.5 3.8-31.5 17.2-45.1 24.9-48.6 27.3-14 9.6-16 30.1-4.2 43 3 3.3 8.1 6.6 22.8 14.6 3 1.7 7.1 3.9 9 5 1.9 1.1 11 6.1 20.2 11.2 13.8 7.7 16.6 9.6 15.9 11-.7 1.4-3.4 10.5-4.6 15.9-.3.9-.9 3.7-1.6 6.2-.6 2.5-1.2 5.2-1.4 6-.2.8-.8 3.5-1.4 6-1.2 5.3-1.6 7.6-3.5 19-1.5 8.8-2.3 15.1-3.2 25.5-.2 3.3-.7 7.6-.9 9.5-1.1 8.6-.5 51.1.9 61.9.3 2 .8 6.1 1.1 9.2.3 3.1.7 6.5.9 7.5.2 1.1.7 4.1 1 6.9 2.2 16.8 12 27.3 27.2 29 13.7 1.6 20.6 2.6 24.9 3.5 2.2.5 5.4 1.1 7.2 1.4 5.7 1.1 20.8 4.8 22.1 5.5 1 .6 1.4 6.5 1.5 27.2.2 24.8.4 26.7 2.4 31.1 10.4 22.7 42.6 22.6 53.1-.2 2.3-5 2.5-6.6 2.6-20.1.1-12.6.3-14.6 1.6-14 12.2 5.2 47.7 28.9 59 39.3 11.8 11 16.4 13.2 27 13.2 8.5 0 14-1.7 18.2-5.6 1.1-1.1 12.2-10.4 17.1-14.4 10.3-8.4 29.7-21.2 42.2-27.9 5-2.7 10.8-5.8 13-7 9.3-5 40.8-17.5 50.5-20 .8-.2 6.9-1.8 13.5-3.5s15.8-3.7 20.5-4.6c4.7-.8 9.7-1.6 11-1.9 1.4-.3 5.2-.7 8.5-1 13.8-1.3 20.1-4 26.3-11 4.2-4.8 6.7-10.7 7.7-18.5.3-2.5.8-5.6 1-7 1-5.9 2.2-16.8 3.1-27.6.5-7.5.5-41.9-.1-50.9-1.2-18.8-4.1-38.5-8.6-59-1.9-8.8-3.3-14.2-6.9-25.7l-1.7-5.8 7.6-4.2c4.2-2.2 9.2-5 11.1-6.1 1.9-1.1 5.8-3.2 8.5-4.7 38.8-21.2 42.8-24.1 46.8-33 2.4-5.5 2.8-16 .7-21-3.6-9.2-7.2-12.7-20.5-20-3.3-1.8-17.7-9.8-32-17.8S559 199.3 556 197.7c-3-1.7-11.1-6.2-18-10s-15.4-8.6-19-10.5c-3.6-1.9-9.4-5.2-13-7.2-3.6-2.1-8.5-4.9-11-6.3-2.5-1.3-7.2-3.9-10.5-5.7-5.3-2.9-20-11.1-35-19.5-5.6-3.1-10.1-5.6-19-10.5-3.3-1.8-7-3.9-8.2-4.6-1.2-.7-6.1-3.5-11-6-4.8-2.6-10-5.6-11.5-6.6-1.4-1-2.8-1.8-3.1-1.8-.3 0-3.8-1.9-7.9-4.2-4-2.2-9.1-5.1-11.3-6.3-2.2-1.2-6.9-3.7-10.5-5.7-9.4-5.2-15.3-6.2-23.5-4.3zm19.7 68.9c7.3 4 15.3 8.5 17.8 9.9 7.1 4 29.5 16.4 71.5 39.7 104.4 57.9 99.7 55.2 97.8 56.5-1 .7-10.6 6.1-21.3 12-10.7 6-21.1 11.7-23 12.8-1.9 1.1-6 3.3-9 5-3 1.6-6.4 3.5-7.5 4.2-1.1.7-5.1 2.9-9 5-3.8 2.1-34.8 19.3-68.8 38.2l-61.8 34.4-3.2-2c-3.8-2.3-12.9-7.3-24.9-13.8-4.9-2.6-8.8-4.9-8.8-5.2 0-.3 12.2-7.3 27.1-15.6 16.9-9.3 28.5-16.4 30.9-18.8 15.4-15.3 6.8-44-14.4-48.3-6.8-1.4-18.1.4-22 3.5-.6.4-4.2 2.5-8.1 4.6-3.8 2.1-18.5 10.2-32.5 18-14 7.8-28.6 15.9-32.5 18-3.8 2.1-7.4 4.1-8 4.5-.5.4-6.6-2.4-13.5-6.2-6.9-3.8-14.7-8.2-17.5-9.7-7.8-4.4-40.4-22.4-58.3-32.3-14.2-7.9-16.1-9.2-14.5-10.3 1.6-1 22.8-12.9 36.3-20.3 2.5-1.3 5.9-3.2 7.5-4.2 1.7-1 5.5-3.1 8.5-4.8 3-1.6 25.5-14.1 50-27.7s47.7-26.5 51.5-28.6c3.9-2.1 15.8-8.7 26.5-14.8 10.7-6 19.6-11 19.7-11 .1-.1 6.2 3.2 13.5 7.3zM199 357.8c2.5 1.4 4.7 2.7 4.9 2.8.2.2.4 95.5.1 113.3 0 2.6-.3 3.2-1.6 2.7-2-.8-15.7-3.6-19.8-4.2-5.8-.7-6.1-1-6.5-7.6-1.4-19.5-.5-55.2 1.8-70.1.6-3.4 1.3-8.2 1.6-10.7.8-5.7 4.2-21 6.1-27.7l1.5-5.2 3.7 2.1c2 1.1 5.7 3.2 8.2 4.6zm318 8.4c2.6 12.3 2.9 14.1 4.1 21.8.5 3.6 1.1 7.8 1.4 9.5 1.3 9.3 2 23.4 1.9 42 0 22.7-.5 30-2 31.4-.5.6-3.1 1.3-5.9 1.6-2.7.4-5.3.9-5.6 1.1-.3.2-2.1.6-4 .9-1.9.3-4.2.8-5.2 1.1-1.1.3-2.9.7-4 .9-8.9 1.3-41.9 11.7-57.6 18.2-19.8 8.1-42.3 19.8-60.1 31.1-9.7 6.2-28.2 19.2-29.1 20.5-.3.5-4.2-1.8-8.6-5.1-6.7-5.1-13.8-9.9-31.3-21.1-5.1-3.3-13-7.4-29-15.2-9.1-4.4-17.2-8.3-18-8.8-1.3-.7-1.5-7.7-1.5-51.9 0-50.7 0-51 2-49.9 1.1.5 7.4 4 14 7.7s14.7 8.2 18 10c7.3 4 12.8 7.1 17.5 9.7 21.2 12 26.6 14.6 31.6 15.2 3 .4 5.6.8 5.9.8.2.1 2.4-.3 4.7-.9 3.5-.8 13.8-6.2 56.5-29.9 1.8-1 6.3-3.5 10-5.5s7.3-4 7.8-4.4c.6-.4 3.9-2.3 7.5-4.2 3.6-2 8.5-4.7 11-6.1 7.1-3.9 31.9-17.6 38-21 3-1.6 6-3.3 6.5-3.7.6-.4 4.2-2.4 8-4.5 3.9-2.1 7.9-4.4 9-5.2 1.8-1.2 2.1-1.1 3.2 1.6.7 1.7 2.2 7.2 3.3 12.3z"/></svg>